<?xml version="1.0" encoding="utf-8"?>
<!-- Generator: Adobe Illustrator 23.0.1, SVG Export Plug-In . SVG Version: 6.00 Build 0)  -->
<svg version="1.1" id="Layer_1" xmlns="http://www.w3.org/2000/svg" xmlns:xlink="http://www.w3.org/1999/xlink" x="0px" y="0px"
	 viewBox="0 0 321 117" style="enable-background:new 0 0 321 117;" xml:space="preserve">
<style type="text/css">
	.st0{fill-rule:evenodd;clip-rule:evenodd;fill:#63686C;}
	.st1{fill-rule:evenodd;clip-rule:evenodd;fill:#90C74C;}
	.st2{fill-rule:evenodd;clip-rule:evenodd;fill:#0D2C6B;}
</style>
<title>Group 25</title>
<desc>Created with Sketch.</desc>
<g id="Page-1">
	<g transform="translate(-31.000000, -137.000000)">
		<g id="header-nav" transform="translate(0.000000, 117.000000)">
			<g id="Group-25" transform="translate(31.000000, 20.000000)">
				<path id="Fill-1" class="st0" d="M134.5,62.7h-13.2l6.6-16.3L134.5,62.7z M132.3,34.7c-0.8-1.8-2.2-2.7-4.4-2.7
					c-2.1,0-3.6,0.9-4.4,2.7l-18.6,41.7c-0.3,0.7-0.5,1.4-0.5,2c0,2.4,1.8,4.8,4.9,4.8c2.5,0,3.6-1.5,4.3-2.8l4-8.6h20.8l4,8.6
					c1,1.9,2.3,2.8,4.3,2.8c3.1,0,4.9-2.5,4.9-4.8c0-0.7-0.2-1.4-0.5-2L132.3,34.7z"/>
				<path id="Fill-3" class="st0" d="M207.2,32c-1.9,0-3.6,1.1-4.4,3L187,68.1l-15.9-33.2c-1.1-2-2.6-3-4.5-3
					c-2.7,0-4.8,2.1-4.8,4.8v41.5c0,2.7,2.2,4.9,4.8,4.9c2.6,0,4.9-2.2,4.9-4.9V56.8l11.3,23.7c0.9,1.8,2.3,2.7,4.2,2.7
					c1.9,0,3.4-1,4.2-2.7l11.2-23.6v21.5c0,2.7,2.2,4.8,4.8,4.8c2.7,0,4.9-2.1,4.9-4.8V36.9C212.1,33.9,210.1,32,207.2,32"/>
				<path id="Fill-5" class="st0" d="M248.3,41.2c4.8,0,7.8,1.9,10.3,3.9c1.1,0.8,2.2,1.1,3.3,1.1c2.7,0,4.7-2,4.7-4.7
					c0-1.3-0.5-2.4-1.6-3.5c-3.9-4-10.1-6.4-16.7-6.4c-15,0-25.4,10.7-25.4,25.9s10.5,25.9,25.4,25.9c6.6,0,12.8-2.4,16.7-6.4
					c1.1-1.1,1.6-2.2,1.6-3.5c0-2.7-2-4.7-4.7-4.7c-1.1,0-2.2,0.4-3.3,1.1l0,0c-2.6,2-5.5,3.9-10.3,3.9c-8.9,0-15.2-6.7-15.2-16.4
					C233.2,48,239.4,41.2,248.3,41.2"/>
				<path id="Fill-7" class="st0" d="M309.9,48.2c0,2.7-1.7,5.9-6.4,5.9H289V42.1h14.5C307.9,42.1,309.9,45.3,309.9,48.2
					 M302.3,32.6h-18.4c-2.9,0-5.1,2.2-5.1,5.1v40.4c0,2.9,2.2,5.1,5.1,5.1c2.9,0,5.1-2.2,5.1-5.1V63.7h13.3
					c11.2,0,17.9-5.8,17.9-15.5C320.2,38.4,313.5,32.6,302.3,32.6"/>
				<path id="Fill-9" class="st1" d="M59.5,21.4l-17.2,10c-2.2,1.3-3,4.2-1.7,6.4c1.3,2.3,4.1,3,6.4,1.7l17.2-10
					c2.2-1.3,3-4.2,1.7-6.4C64.5,20.9,61.7,20.1,59.5,21.4"/>
				<path id="Fill-11" class="st2" d="M82.8,40.5L36.2,67.6c-2.2,1.3-5.1,0.5-6.4-1.7c-1.3-2.3-0.5-5.1,1.7-6.4l46.5-27.2
					c2.2-1.3,5.1-0.5,6.4,1.7C85.7,36.3,85,39.1,82.8,40.5"/>
				<path id="Fill-13" class="st2" d="M82.8,84l-38.5,22.5c-2.2,1.3-5.1,0.5-6.4-1.7c-1.3-2.3-0.5-5.1,1.7-6.4l38.5-22.5
					c2.2-1.3,5.1-0.5,6.4,1.7C85.7,79.8,85,82.7,82.8,84"/>
				<path id="Fill-15" class="st2" d="M59.6,75.7l-34,19.9c-2.2,1.3-5.1,0.5-6.4-1.7c-1.3-2.3-0.5-5.1,1.7-6.4l34-19.9
					c2.2-1.3,5.1-0.5,6.4,1.7C62.6,71.5,61.9,74.4,59.6,75.7"/>
				<path id="Fill-17" class="st2" d="M40.8,10.5L2.3,33c-2.2,1.3-3,4.2-1.7,6.4c1.3,2.3,4.1,3,6.4,1.7l38.5-22.5
					c2.2-1.3,3-4.2,1.7-6.4C45.9,10,43.1,9.2,40.8,10.5"/>
				<path id="Fill-19" class="st2" d="M30.2,38.5L2.3,54.8c-2.2,1.3-3,4.2-1.7,6.4c1.3,2.3,4.1,3,6.4,1.7l27.9-16.3
					c2.2-1.3,3-4.2,1.7-6.4C35.3,38,32.4,37.2,30.2,38.5"/>
				<path id="Fill-21" class="st2" d="M78.1,54.1l-11,6.4c-2.2,1.3-3,4.2-1.7,6.4c1.3,2.3,4.1,3,6.4,1.7l11-6.4
					c2.2-1.3,3-4.2,1.7-6.4C83.2,53.5,80.3,52.8,78.1,54.1"/>
				<path id="Fill-23" class="st2" d="M19.4,66.6l-17.1,10c-2.2,1.3-3,4.2-1.7,6.4c1.3,2.3,4.1,3,6.4,1.7l17.1-10
					c2.2-1.3,3-4.2,1.7-6.4C24.5,66,21.7,65.3,19.4,66.6"/>
			</g>
		</g>
	</g>
</g>
</svg>
